HIERARCHY
ROOT Hips
{
	OFFSET 0.000000 100.481300 0.000000
	CHANNELS 6 Xposition Yposition Zposition Xrotation Yrotation Zrotation
	JOINT Spine
	{
		OFFSET -0.279200 12.230698 -2.892100
		CHANNELS 3 Xrotation Yrotation Zrotation
		JOINT Spine1
		{
			OFFSET -0.325700 14.269203 -3.374200
			CHANNELS 3 Xrotation Yrotation Zrotation
			JOINT Spine2
			{
				OFFSET -0.372300 16.307602 -0.352600
				CHANNELS 3 Xrotation Yrotation Zrotation
				JOINT Neck
				{
					OFFSET -0.418800 17.814194 8.416900
					CHANNELS 3 Xrotation Yrotation Zrotation
					JOINT Head
					{
						OFFSET 0.000000 7.031097 3.806800
						CHANNELS 3 Xrotation Yrotation Zrotation
						JOINT HeadTop_End
						{
							OFFSET 0.000000 24.646606 12.978600
							CHANNELS 3 Xrotation Yrotation Zrotation
							End Site
							{
								OFFSET 0.000000 27.854965 0.000000
							}
						}
					}
				}
				JOINT LeftShoulder
				{
					OFFSET 16.952999 14.495407 -7.737500
					CHANNELS 3 Xrotation Yrotation Zrotation
					JOINT LeftArm
					{
						OFFSET 9.308998 -2.777710 0.208600
						CHANNELS 3 Xrotation Yrotation Zrotation
						JOINT LeftForeArm
						{
							OFFSET 29.972298 0.000000 0.000000
							CHANNELS 3 Xrotation Yrotation Zrotation
							JOINT LeftHand
							{
								OFFSET 26.026505 0.000000 0.000000
								CHANNELS 3 Xrotation Yrotation Zrotation
								JOINT LeftHandThumb1
								{
									OFFSET 12.240501 -7.147949 9.207150
									CHANNELS 3 Xrotation Yrotation Zrotation
									JOINT LeftHandThumb2
									{
										OFFSET 4.138618 -2.389435 2.389433
										CHANNELS 3 Xrotation Yrotation Zrotation
										JOINT LeftHandThumb3
										{
											OFFSET 2.726913 -1.574387 1.574386
											CHANNELS 3 Xrotation Yrotation Zrotation
											JOINT LeftHandThumb4
											{
												OFFSET 3.941010 -2.275345 2.275342
												CHANNELS 3 Xrotation Yrotation Zrotation
												End Site
												{
													OFFSET -0.005798 5.087799 0.009903
												}
											}
										}
									}
								}
								JOINT LeftHandIndex1
								{
									OFFSET 24.424698 -1.985611 5.953459
									CHANNELS 3 Xrotation Yrotation Zrotation
									JOINT LeftHandIndex2
									{
										OFFSET 6.426697 0.000000 0.000000
										CHANNELS 3 Xrotation Yrotation Zrotation
										JOINT LeftHandIndex3
										{
											OFFSET 5.337898 0.000000 0.000000
											CHANNELS 3 Xrotation Yrotation Zrotation
											JOINT LeftHandIndex4
											{
												OFFSET 4.409401 0.000000 0.000000
												CHANNELS 3 Xrotation Yrotation Zrotation
												End Site
												{
													OFFSET 0.000000 4.409363 0.014373
												}
											}
										}
									}
								}
								JOINT LeftHandMiddle1
								{
									OFFSET 23.810104 0.000000 0.000000
									CHANNELS 3 Xrotation Yrotation Zrotation
									JOINT LeftHandMiddle2
									{
										OFFSET 7.176498 0.000000 0.000000
										CHANNELS 3 Xrotation Yrotation Zrotation
										JOINT LeftHandMiddle3
										{
											OFFSET 6.774902 0.000000 0.000000
											CHANNELS 3 Xrotation Yrotation Zrotation
											JOINT LeftHandMiddle4
											{
												OFFSET 5.403328 0.000000 0.000000
												CHANNELS 3 Xrotation Yrotation Zrotation
												End Site
												{
													OFFSET -0.027702 5.403244 0.017414
												}
											}
										}
									}
								}
								JOINT LeftHandRing1
								{
									OFFSET 22.908401 -0.839279 -6.020567
									CHANNELS 3 Xrotation Yrotation Zrotation
									JOINT LeftHandRing2
									{
										OFFSET 6.337502 0.000000 0.000000
										CHANNELS 3 Xrotation Yrotation Zrotation
										JOINT LeftHandRing3
										{
											OFFSET 5.779297 0.000000 0.000000
											CHANNELS 3 Xrotation Yrotation Zrotation
											JOINT LeftHandRing4
											{
												OFFSET 4.965698 0.000000 0.000000
												CHANNELS 3 Xrotation Yrotation Zrotation
												End Site
												{
													OFFSET 0.000000 4.965668 0.016186
												}
											}
										}
									}
								}
								JOINT LeftHandPinky1
								{
									OFFSET 20.037003 -1.530319 -10.950146
									CHANNELS 3 Xrotation Yrotation Zrotation
									JOINT LeftHandPinky2
									{
										OFFSET 5.254700 0.000000 0.000000
										CHANNELS 3 Xrotation Yrotation Zrotation
										JOINT LeftHandPinky3
										{
											OFFSET 4.810204 0.000000 0.000000
											CHANNELS 3 Xrotation Yrotation Zrotation
											JOINT LeftHandPinky4
											{
												OFFSET 3.647202 0.000000 0.000000
												CHANNELS 3 Xrotation Yrotation Zrotation
												End Site
												{
													OFFSET 0.000000 3.647186 0.011889
												}
											}
										}
									}
								}
							}
						}
					}
				}
				JOINT RightShoulder
				{
					OFFSET -15.141001 14.495407 -7.737500
					CHANNELS 3 Xrotation Yrotation Zrotation
					JOINT RightArm
					{
						OFFSET -9.308998 -2.777710 0.208500
						CHANNELS 3 Xrotation Yrotation Zrotation
						JOINT RightForeArm
						{
							OFFSET -29.972300 0.000000 0.000000
							CHANNELS 3 Xrotation Yrotation Zrotation
							JOINT RightHand
							{
								OFFSET -26.026505 0.000000 0.000000
								CHANNELS 3 Xrotation Yrotation Zrotation
								JOINT RightHandThumb1
								{
									OFFSET -12.240601 -7.148026 9.207092
									CHANNELS 3 Xrotation Yrotation Zrotation
									JOINT RightHandThumb2
									{
										OFFSET -4.138618 -2.389435 2.389433
										CHANNELS 3 Xrotation Yrotation Zrotation
										JOINT RightHandThumb3
										{
											OFFSET -2.726974 -1.574417 1.574421
											CHANNELS 3 Xrotation Yrotation Zrotation
											JOINT RightHandThumb4
											{
												OFFSET -3.941010 -2.275345 2.275343
												CHANNELS 3 Xrotation Yrotation Zrotation
												End Site
												{
													OFFSET 0.005814 5.087799 0.009927
												}
											}
										}
									}
								}
								JOINT RightHandIndex1
								{
									OFFSET -24.424698 -1.985657 5.953444
									CHANNELS 3 Xrotation Yrotation Zrotation
									JOINT RightHandIndex2
									{
										OFFSET -6.426697 0.000000 0.000000
										CHANNELS 3 Xrotation Yrotation Zrotation
										JOINT RightHandIndex3
										{
											OFFSET -5.337898 0.000000 0.000000
											CHANNELS 3 Xrotation Yrotation Zrotation
											JOINT RightHandIndex4
											{
												OFFSET -4.409401 0.000000 0.000000
												CHANNELS 3 Xrotation Yrotation Zrotation
												End Site
												{
													OFFSET 0.000000 4.409363 0.014408
												}
											}
										}
									}
								}
								JOINT RightHandMiddle1
								{
									OFFSET -23.810097 0.000000 0.000000
									CHANNELS 3 Xrotation Yrotation Zrotation
									JOINT RightHandMiddle2
									{
										OFFSET -7.176498 0.000000 0.000000
										CHANNELS 3 Xrotation Yrotation Zrotation
										JOINT RightHandMiddle3
										{
											OFFSET -6.774902 0.000000 0.000000
											CHANNELS 3 Xrotation Yrotation Zrotation
											JOINT RightHandMiddle4
											{
												OFFSET -5.403328 0.000000 0.000000
												CHANNELS 3 Xrotation Yrotation Zrotation
												End Site
												{
													OFFSET 0.027702 5.403244 0.017457
												}
											}
										}
									}
								}
								JOINT RightHandRing1
								{
									OFFSET -22.908302 -0.839325 -6.020576
									CHANNELS 3 Xrotation Yrotation Zrotation
									JOINT RightHandRing2
									{
										OFFSET -6.337502 0.000000 0.000000
										CHANNELS 3 Xrotation Yrotation Zrotation
										JOINT RightHandRing3
										{
											OFFSET -5.779297 0.000000 0.000000
											CHANNELS 3 Xrotation Yrotation Zrotation
											JOINT RightHandRing4
											{
												OFFSET -4.965698 0.000000 0.000000
												CHANNELS 3 Xrotation Yrotation Zrotation
												End Site
												{
													OFFSET 0.000000 4.965668 0.016226
												}
											}
										}
									}
								}
								JOINT RightHandPinky1
								{
									OFFSET -20.037003 -1.530334 -10.950259
									CHANNELS 3 Xrotation Yrotation Zrotation
									JOINT RightHandPinky2
									{
										OFFSET -5.254700 0.000000 0.000000
										CHANNELS 3 Xrotation Yrotation Zrotation
										JOINT RightHandPinky3
										{
											OFFSET -4.810204 0.000000 0.000000
											CHANNELS 3 Xrotation Yrotation Zrotation
											JOINT RightHandPinky4
											{
												OFFSET -3.647202 0.000000 0.000000
												CHANNELS 3 Xrotation Yrotation Zrotation
												End Site
												{
													OFFSET 0.000000 3.647186 0.011917
												}
											}
										}
									}
								}
							}
						}
					}
				}
			}
		}
	}
	JOINT LeftUpLeg
	{
		OFFSET 15.427100 -6.655098 0.678600
		CHANNELS 3 Xrotation Yrotation Zrotation
		JOINT LeftLeg
		{
			OFFSET 4.081073 -39.591068 13.024000
			CHANNELS 3 Xrotation Yrotation Zrotation
			JOINT LeftFoot
			{
				OFFSET -4.081074 -37.707932 -15.979700
				CHANNELS 3 Xrotation Yrotation Zrotation
				JOINT LeftToeBase
				{
					OFFSET 5.346399 -15.068900 20.645000
					CHANNELS 3 Xrotation Yrotation Zrotation
					JOINT LeftToe_End
					{
						OFFSET 2.754700 0.931300 11.300900
						CHANNELS 3 Xrotation Yrotation Zrotation
						End Site
						{
							OFFSET 0.000000 11.669021 0.000000
						}
					}
				}
			}
		}
	}
	JOINT RightUpLeg
	{
		OFFSET -15.569500 -6.655098 0.678600
		CHANNELS 3 Xrotation Yrotation Zrotation
		JOINT RightLeg
		{
			OFFSET -4.081825 -39.591045 13.023800
			CHANNELS 3 Xrotation Yrotation Zrotation
			JOINT RightFoot
			{
				OFFSET 4.081824 -37.707954 -15.979600
				CHANNELS 3 Xrotation Yrotation Zrotation
				JOINT RightToeBase
				{
					OFFSET -5.346400 -15.068900 20.645000
					CHANNELS 3 Xrotation Yrotation Zrotation
					JOINT RightToe_End
					{
						OFFSET -2.754700 0.931300 11.300900
						CHANNELS 3 Xrotation Yrotation Zrotation
						End Site
						{
							OFFSET 0.000000 11.669021 0.000000
						}
					}
				}
			}
		}
	}
}
MOTION
Frames: 4
Frame Time: 0.033333
0.903559 97.583961 -0.878939 -3.760608 6.537898 -3.104936 3.293881 1.525993 2.847967 1.151889 0.339459 1.552800 1.126013 0.361544 1.555888 5.626308 -0.078964 0.454684 -7.563343 1.375729 -0.080566 -0.000000 -0.000001 0.000000 1.044407 -17.441009 -12.319348 3.916214 -19.989279 -69.765355 -0.000001 -1.459359 0.000007 -33.230400 -1.364822 -6.186638 -0.663002 2.160316 4.832486 11.853549 25.421612 17.058360 -13.814986 3.535300 9.041621 0.000001 0.000001 0.000002 0.019863 -0.969579 -7.593543 0.267956 1.753172 -17.378583 0.057722 0.821243 -8.040858 -0.000000 -0.000000 0.000001 -0.076310 2.665777 -15.696816 0.268679 1.755475 -17.402176 0.300416 1.853655 -18.410001 -0.000000 0.000000 -0.000000 0.136904 3.641772 -21.133526 0.386621 2.094790 -20.911903 0.283041 1.800631 -17.865004 -0.000000 0.000000 -0.000003 0.927720 5.555916 -27.128045 0.268794 1.755842 -17.405859 0.241909 1.667700 -16.505900 -0.000000 -0.000000 0.000000 1.203176 15.343656 14.705993 13.158899 27.555116 58.785116 -0.000006 6.693781 0.000011 -20.179087 -0.514114 6.782805 -1.665245 -0.174488 -4.219029 12.710700 -29.825322 -16.131655 -15.561925 -3.563483 -12.703142 -0.000002 -0.000000 -0.000000 0.030296 1.261350 6.823316 0.213731 -1.396038 17.407026 0.046027 -0.653843 8.053228 -0.000003 -0.000002 -0.000002 -0.136217 -2.205098 14.998894 0.214439 -1.398355 17.436872 0.239776 -1.476526 18.446282 0.000000 -0.000000 0.000000 0.028841 -3.071047 20.451342 0.308452 -1.668294 20.948506 0.225824 -1.434046 17.897085 -0.000001 -0.000000 0.000001 0.736296 -4.891520 26.472971 0.214452 -1.398349 17.436925 0.193008 -1.328191 16.535821 0.000001 -0.000002 -0.000001 -10.247216 14.653963 11.506436 12.219410 1.645194 4.068213 0.759925 0.807333 -8.239026 -4.928526 0.000002 0.000000 -0.000001 0.000000 -0.000000 3.594043 -10.076526 1.698445 6.754440 -8.475612 -2.421578 -5.416870 -3.055824 5.024796 -7.293308 -0.000001 0.000000 0.000000 0.000001 0.000000 
1.475708 96.722130 -1.271098 -3.552536 4.303665 -3.130316 3.416935 1.308006 2.510198 1.248268 0.185020 1.550222 1.218455 0.205208 1.594304 5.508172 -0.720054 0.788083 -7.921075 -0.730570 0.449663 -0.000000 0.000000 0.000000 1.104461 -17.506267 -12.071441 4.627208 -20.040330 -69.281047 -0.000004 -1.749962 0.000002 -33.575342 -1.272629 -6.084131 -0.663002 2.160315 4.832486 11.831249 25.315302 17.076402 -13.811725 3.548769 9.044982 -0.000002 0.000002 -0.000000 -0.004175 -0.997056 -7.620200 0.267958 1.753173 -17.378592 0.057722 0.821241 -8.040852 0.000000 -0.000000 0.000000 -0.081222 2.658793 -15.819136 0.268679 1.755475 -17.402149 0.300418 1.853656 -18.409989 -0.000000 -0.000000 -0.000003 0.134637 3.639247 -21.210662 0.385478 2.091793 -20.880561 0.282058 1.797581 -17.833697 -0.000000 -0.000000 0.000000 0.878575 5.492003 -27.202902 0.274288 1.773262 -17.584279 0.247075 1.685028 -16.682472 0.000000 -0.000000 -0.000001 1.174798 15.442578 14.847691 11.319335 25.711376 58.776346 0.000010 7.611367 0.000002 -18.835075 1.411531 4.947375 -1.665247 -0.174488 -4.219030 12.521847 -29.836496 -16.168786 -15.549701 -3.634098 -12.718719 -0.000000 0.000001 0.000002 0.020488 1.269206 6.948173 0.214180 -1.397504 17.426010 0.046239 -0.655377 8.072222 0.000005 0.000001 0.000001 -0.153288 -2.153961 15.136311 0.214766 -1.399352 17.449834 0.240118 -1.477566 18.459573 0.000001 -0.000000 -0.000001 0.031868 -3.083287 20.544009 0.309371 -1.670701 20.980400 0.226621 -1.436507 17.928932 -0.000001 0.000000 -0.000000 0.718225 -4.854120 26.536996 0.214904 -1.399793 17.455295 0.193434 -1.329611 16.554060 -0.000000 0.000001 -0.000001 -11.128823 14.244216 11.775672 14.860236 3.422509 3.956042 -0.863370 1.591635 -8.508971 -4.928525 0.000001 0.000002 0.000000 -0.000001 -0.000000 0.808694 -10.134650 1.082281 9.970393 -6.540867 -2.573150 -6.203261 -2.820836 5.086264 -7.293307 0.000002 -0.000001 -0.000000 0.000000 0.000000 
2.699869 95.142097 -2.045015 -3.299509 2.176998 -2.885449 3.556601 1.137074 1.842417 1.348175 0.068653 1.433333 1.314379 0.095191 1.599575 5.686850 -1.976230 1.355243 -7.737406 -4.045422 1.283508 0.000000 -0.000000 -0.000001 1.166542 -17.531052 -11.830002 5.429772 -19.691333 -68.640116 0.000003 -2.201958 -0.000012 -33.964779 -1.012100 -5.777862 -0.663002 2.160315 4.832487 11.880872 25.487126 17.001645 -13.815440 3.533436 9.041168 0.000001 -0.000003 -0.000001 -0.013848 -0.986917 -7.704695 0.267976 1.753229 -17.379186 0.057730 0.821302 -8.041434 0.000000 -0.000000 0.000001 -0.069440 2.700791 -15.820692 0.268657 1.755403 -17.401394 0.300388 1.853566 -18.409091 0.000000 0.000000 -0.000003 0.121027 3.606507 -21.263538 0.386823 2.095312 -20.917384 0.283214 1.801171 -17.870533 -0.000000 0.000000 0.000000 0.797820 5.387893 -27.333408 0.269006 1.756511 -17.412737 0.241967 1.667901 -16.507944 -0.000000 -0.000000 0.000001 1.143537 15.558257 15.002360 8.687167 21.993206 59.103669 0.000001 8.636636 -0.000001 -14.763331 3.844049 3.452537 -1.665247 -0.174487 -4.219029 12.600835 -29.815278 -16.146513 -15.550882 -3.592099 -12.720765 -0.000001 0.000001 0.000001 0.028970 1.244974 7.002539 0.213794 -1.396281 17.410284 0.046069 -0.654108 8.056453 -0.000001 -0.000001 -0.000001 -0.161975 -2.126807 15.190628 0.215043 -1.400248 17.461373 0.240414 -1.478466 18.471285 -0.000002 -0.000001 0.000003 0.042763 -3.115757 20.622974 0.309874 -1.672003 20.997514 0.227044 -1.437822 17.945929 0.000002 0.000000 -0.000000 0.736991 -4.890563 26.580540 0.214457 -1.398384 17.437304 0.193023 -1.328209 16.536173 -0.000000 -0.000001 0.000001 -12.991417 12.940420 11.184586 19.399616 5.140208 3.930560 -3.236500 3.307453 -8.436372 -4.928525 0.000005 -0.000002 0.000000 -0.000001 -0.000000 -3.204343 -3.250330 -2.534301 16.079592 -8.737656 0.849345 -6.805139 -6.433514 5.760716 -7.564942 0.000002 0.000001 -0.000000 0.000000 -0.000000 
4.328233 93.804276 -2.801791 -3.024645 0.111837 -2.561361 3.691976 0.978255 1.364189 1.455358 -0.072595 1.226836 1.418154 -0.030078 1.582648 6.160511 -3.580039 2.013636 -7.044687 -8.035306 2.296684 -0.000000 0.000000 -0.000000 1.212938 -17.493496 -11.641794 6.257661 -19.002220 -67.891356 0.000002 -2.747470 0.000018 -34.435235 -0.512642 -5.282572 -0.663002 2.160315 4.832486 11.930384 25.535586 16.961667 -13.815381 3.533707 9.041231 -0.000002 0.000001 0.000003 -0.016730 -0.968106 -7.814968 0.265335 1.744774 -17.292634 0.056498 0.812528 -7.954978 -0.000000 0.000000 -0.000002 -0.063692 2.730970 -15.939548 0.269599 1.758404 -17.432157 0.301379 1.856538 -18.439697 -0.000001 -0.000000 0.000003 0.111601 3.588309 -21.393865 0.387072 2.095966 -20.924203 0.283428 1.801841 -17.877378 -0.000001 -0.000001 0.000001 0.753931 5.331930 -27.413125 0.267451 1.751559 -17.362016 0.240449 1.662761 -16.455606 -0.000001 0.000000 -0.000002 1.124595 15.615534 15.095956 5.785162 16.907039 59.504868 -0.000004 9.923211 -0.000007 -8.727965 6.501430 1.989573 -1.665245 -0.174488 -4.219029 13.118235 -30.028513 -16.056685 -15.552401 -3.341724 -12.708875 0.000001 0.000001 -0.000001 0.043824 1.178033 7.234934 0.213637 -1.395762 17.403592 0.045997 -0.653575 8.049785 -0.000002 -0.000001 0.000001 -0.135457 -2.251237 15.489570 0.215426 -1.401454 17.476842 0.240800 -1.479615 18.486230 -0.000001 -0.000002 -0.000000 0.062241 -3.174818 20.803894 0.310242 -1.672964 21.010183 0.227363 -1.438806 17.958394 0.000003 -0.000000 -0.000000 0.776415 -4.956983 26.686032 0.214679 -1.399081 17.446187 0.193240 -1.328925 16.545273 0.000001 -0.000001 -0.000001 -14.336055 11.135807 9.767047 23.100072 6.952491 4.020378 -5.223042 5.670897 -8.233575 -4.928524 0.000017 0.000000 0.000000 -0.000000 -0.000000 -6.016598 0.273900 -4.657565 22.343190 -8.836196 2.501060 -7.457306 -12.885787 5.815179 -7.078335 -0.000003 -0.000002 0.000000 0.000000 0.000000 
